# xmcd CD database file
#
# Track frame offsets:
#	150
#	32257
#	66242
#	98963
#	138468
#	153729
#	163969
#	191416
#	217875
#	237331
#	256530
#	286027
#
# Disc length: 4080 seconds
#
# Revision: 0
# Processed by: cddbd v1.5.1PL0 Copyright (c) Steve Scherf et al.
# Submitted via: CDex 1.51
#
DISCID=a10fee0c
DTITLE=Pops Mohamed - Yesterday, Today and Tomorow
DYEAR=1900
DGENRE=Jazz
TTITLE0=Kalamazoo
TTITLE1=Mother And Child
TTITLE2=Gauteng Vibes
TTITLE3=Lament
TTITLE4=Movement In The City - Part 1
TTITLE5=The Journey - Part 1
TTITLE6=The Journey - Part 2
TTITLE7=Spirit
TTITLE8=The Journey Continues
TTITLE9=Arosa
TTITLE10=Movement In The City - Part 2
TTITLE11=I'm Going Back
EXTD=
EXTT0=
EXTT1=
EXTT2=
EXTT3=
EXTT4=
EXTT5=
EXTT6=
EXTT7=
EXTT8=
EXTT9=
EXTT10=
EXTT11=
PLAYORDER=
